<svg viewBox="0 0 1112.2000732421875 400" xmlns="http://www.w3.org/2000/svg"><g><g><g><g><g><line x1="51.5625" y1="378" x2="46.5625" y2="378" style="visibility: inherit;" fill="rgb(0, 0, 0)" stroke="rgb(204, 204, 204)" stroke-width="1px"></line><line x1="51.5625" y1="346.5" x2="46.5625" y2="346.5" style="visibility: inherit;" fill="rgb(0, 0, 0)" stroke="rgb(204, 204, 204)" stroke-width="1px"></line><line x1="51.5625" y1="315.0000000000001" x2="46.5625" y2="315.0000000000001" style="visibility: inherit;" fill="rgb(0, 0, 0)" stroke="rgb(204, 204, 204)" stroke-width="1px"></line><line x1="51.5625" y1="283.50000000000006" x2="46.5625" y2="283.50000000000006" style="visibility: inherit;" fill="rgb(0, 0, 0)" stroke="rgb(204, 204, 204)" stroke-width="1px"></line><line x1="51.5625" y1="252.00000000000003" x2="46.5625" y2="252.00000000000003" style="visibility: inherit;" fill="rgb(0, 0, 0)" stroke="rgb(204, 204, 204)" stroke-width="1px"></line><line x1="51.5625" y1="220.50000000000006" x2="46.5625" y2="220.50000000000006" style="visibility: inherit;" fill="rgb(0, 0, 0)" stroke="rgb(204, 204, 204)" stroke-width="1px"></line><line x1="51.5625" y1="189" x2="46.5625" y2="189" style="visibility: inherit;" fill="rgb(0, 0, 0)" stroke="rgb(204, 204, 204)" stroke-width="1px"></line><line x1="51.5625" y1="157.5" x2="46.5625" y2="157.5" style="visibility: inherit;" fill="rgb(0, 0, 0)" stroke="rgb(204, 204, 204)" stroke-width="1px"></line><line x1="51.5625" y1="126.0000000000001" x2="46.5625" y2="126.0000000000001" style="visibility: inherit;" fill="rgb(0, 0, 0)" stroke="rgb(204, 204, 204)" stroke-width="1px"></line><line x1="51.5625" y1="94.50000000000009" x2="46.5625" y2="94.50000000000009" style="visibility: inherit;" fill="rgb(0, 0, 0)" stroke="rgb(204, 204, 204)" stroke-width="1px"></line><line x1="51.5625" y1="63.00000000000007" x2="46.5625" y2="63.00000000000007" style="visibility: inherit;" fill="rgb(0, 0, 0)" stroke="rgb(204, 204, 204)" stroke-width="1px"></line><line x1="51.5625" y1="31.500000000000014" x2="46.5625" y2="31.500000000000014" style="visibility: inherit;" fill="rgb(0, 0, 0)" stroke="rgb(204, 204, 204)" stroke-width="1px"></line><line x1="51.5625" y1="0" x2="46.5625" y2="0" style="visibility: inherit;" fill="rgb(0, 0, 0)" stroke="rgb(204, 204, 204)" stroke-width="1px"></line></g><g transform="translate(41.5625, 0)"><text x="0" y="378" dx="0em" dy="0.3em" style="text-anchor: end; visibility: hidden; font-family: Roboto, sans-serif; font-size: 12px; font-weight: 200;" fill="rgb(50, 49, 63)" stroke="none" stroke-width="1px">0.78</text><text x="0" y="346.5" dx="0em" dy="0.3em" style="text-anchor: end; visibility: inherit; font-family: Roboto, sans-serif; font-size: 12px; font-weight: 200;" fill="rgb(50, 49, 63)" stroke="none" stroke-width="1px">0.8</text><text x="0" y="315.0000000000001" dx="0em" dy="0.3em" style="text-anchor: end; visibility: inherit; font-family: Roboto, sans-serif; font-size: 12px; font-weight: 200;" fill="rgb(50, 49, 63)" stroke="none" stroke-width="1px">0.82</text><text x="0" y="283.50000000000006" dx="0em" dy="0.3em" style="text-anchor: end; visibility: inherit; font-family: Roboto, sans-serif; font-size: 12px; font-weight: 200;" fill="rgb(50, 49, 63)" stroke="none" stroke-width="1px">0.84</text><text x="0" y="252.00000000000003" dx="0em" dy="0.3em" style="text-anchor: end; visibility: inherit; font-family: Roboto, sans-serif; font-size: 12px; font-weight: 200;" fill="rgb(50, 49, 63)" stroke="none" stroke-width="1px">0.86</text><text x="0" y="220.50000000000006" dx="0em" dy="0.3em" style="text-anchor: end; visibility: inherit; font-family: Roboto, sans-serif; font-size: 12px; font-weight: 200;" fill="rgb(50, 49, 63)" stroke="none" stroke-width="1px">0.88</text><text x="0" y="189" dx="0em" dy="0.3em" style="text-anchor: end; visibility: inherit; font-family: Roboto, sans-serif; font-size: 12px; font-weight: 200;" fill="rgb(50, 49, 63)" stroke="none" stroke-width="1px">0.9</text><text x="0" y="157.5" dx="0em" dy="0.3em" style="text-anchor: end; visibility: inherit; font-family: Roboto, sans-serif; font-size: 12px; font-weight: 200;" fill="rgb(50, 49, 63)" stroke="none" stroke-width="1px">0.92</text><text x="0" y="126.0000000000001" dx="0em" dy="0.3em" style="text-anchor: end; visibility: inherit; font-family: Roboto, sans-serif; font-size: 12px; font-weight: 200;" fill="rgb(50, 49, 63)" stroke="none" stroke-width="1px">0.94</text><text x="0" y="94.50000000000009" dx="0em" dy="0.3em" style="text-anchor: end; visibility: inherit; font-family: Roboto, sans-serif; font-size: 12px; font-weight: 200;" fill="rgb(50, 49, 63)" stroke="none" stroke-width="1px">0.96</text><text x="0" y="63.00000000000007" dx="0em" dy="0.3em" style="text-anchor: end; visibility: inherit; font-family: Roboto, sans-serif; font-size: 12px; font-weight: 200;" fill="rgb(50, 49, 63)" stroke="none" stroke-width="1px">0.98</text><text x="0" y="31.500000000000014" dx="0em" dy="0.3em" style="text-anchor: end; visibility: inherit; font-family: Roboto, sans-serif; font-size: 12px; font-weight: 200;" fill="rgb(50, 49, 63)" stroke="none" stroke-width="1px">1</text><text x="0" y="0" dx="0em" dy="0.3em" style="text-anchor: end; visibility: hidden; font-family: Roboto, sans-serif; font-size: 12px; font-weight: 200;" fill="rgb(50, 49, 63)" stroke="none" stroke-width="1px">1.02</text></g><line x1="51.5625" y1="0" x2="51.5625" y2="378" fill="rgb(0, 0, 0)" stroke="rgb(204, 204, 204)" stroke-width="1px"></line></g></g><g transform="translate(51, 0)" clip-path="url(#clip_0)"><clipPath id="clip_0"><rect width="1060" height="378"></rect></clipPath><g><g><g><line x1="0" y1="0" x2="0" y2="378" fill="rgb(0, 0, 0)" stroke="rgb(60, 60, 60)" stroke-width="1px" opacity="0.25"></line><line x1="117.84861111111111" y1="0" x2="117.84861111111111" y2="378" fill="rgb(0, 0, 0)" stroke="rgb(60, 60, 60)" stroke-width="1px" opacity="0.25"></line><line x1="235.69722222222222" y1="0" x2="235.69722222222222" y2="378" fill="rgb(0, 0, 0)" stroke="rgb(60, 60, 60)" stroke-width="1px" opacity="0.25"></line><line x1="353.54583333333335" y1="0" x2="353.54583333333335" y2="378" fill="rgb(0, 0, 0)" stroke="rgb(60, 60, 60)" stroke-width="1px" opacity="0.25"></line><line x1="471.39444444444445" y1="0" x2="471.39444444444445" y2="378" fill="rgb(0, 0, 0)" stroke="rgb(60, 60, 60)" stroke-width="1px" opacity="0.25"></line><line x1="589.2430555555557" y1="0" x2="589.2430555555557" y2="378" fill="rgb(0, 0, 0)" stroke="rgb(60, 60, 60)" stroke-width="1px" opacity="0.25"></line><line x1="707.0916666666667" y1="0" x2="707.0916666666667" y2="378" fill="rgb(0, 0, 0)" stroke="rgb(60, 60, 60)" stroke-width="1px" opacity="0.25"></line><line x1="824.9402777777779" y1="0" x2="824.9402777777779" y2="378" fill="rgb(0, 0, 0)" stroke="rgb(60, 60, 60)" stroke-width="1px" opacity="0.25"></line><line x1="942.7888888888889" y1="0" x2="942.7888888888889" y2="378" fill="rgb(0, 0, 0)" stroke="rgb(60, 60, 60)" stroke-width="1px" opacity="0.25"></line><line x1="1060.6375" y1="0" x2="1060.6375" y2="378" fill="rgb(0, 0, 0)" stroke="rgb(60, 60, 60)" stroke-width="1px" opacity="0.25"></line></g><g><line x1="0" y1="378" x2="1060.6375" y2="378" fill="rgb(0, 0, 0)" stroke="rgb(60, 60, 60)" stroke-width="1px" opacity="0.25"></line><line x1="0" y1="346.5" x2="1060.6375" y2="346.5" fill="rgb(0, 0, 0)" stroke="rgb(60, 60, 60)" stroke-width="1px" opacity="0.25"></line><line x1="0" y1="315.0000000000001" x2="1060.6375" y2="315.0000000000001" fill="rgb(0, 0, 0)" stroke="rgb(60, 60, 60)" stroke-width="1px" opacity="0.25"></line><line x1="0" y1="283.50000000000006" x2="1060.6375" y2="283.50000000000006" fill="rgb(0, 0, 0)" stroke="rgb(60, 60, 60)" stroke-width="1px" opacity="0.25"></line><line x1="0" y1="252.00000000000003" x2="1060.6375" y2="252.00000000000003" fill="rgb(0, 0, 0)" stroke="rgb(60, 60, 60)" stroke-width="1px" opacity="0.25"></line><line x1="0" y1="220.50000000000006" x2="1060.6375" y2="220.50000000000006" fill="rgb(0, 0, 0)" stroke="rgb(60, 60, 60)" stroke-width="1px" opacity="0.25"></line><line x1="0" y1="189" x2="1060.6375" y2="189" fill="rgb(0, 0, 0)" stroke="rgb(60, 60, 60)" stroke-width="1px" opacity="0.25"></line><line x1="0" y1="157.5" x2="1060.6375" y2="157.5" fill="rgb(0, 0, 0)" stroke="rgb(60, 60, 60)" stroke-width="1px" opacity="0.25"></line><line x1="0" y1="126.0000000000001" x2="1060.6375" y2="126.0000000000001" fill="rgb(0, 0, 0)" stroke="rgb(60, 60, 60)" stroke-width="1px" opacity="0.25"></line><line x1="0" y1="94.50000000000009" x2="1060.6375" y2="94.50000000000009" fill="rgb(0, 0, 0)" stroke="rgb(60, 60, 60)" stroke-width="1px" opacity="0.25"></line><line x1="0" y1="63.00000000000007" x2="1060.6375" y2="63.00000000000007" fill="rgb(0, 0, 0)" stroke="rgb(60, 60, 60)" stroke-width="1px" opacity="0.25"></line><line x1="0" y1="31.500000000000014" x2="1060.6375" y2="31.500000000000014" fill="rgb(0, 0, 0)" stroke="rgb(60, 60, 60)" stroke-width="1px" opacity="0.25"></line><line x1="0" y1="0" x2="1060.6375" y2="0" fill="rgb(0, 0, 0)" stroke="rgb(60, 60, 60)" stroke-width="1px" opacity="0.25"></line></g></g></g><g><g><line x1="0" y1="1606.5" x2="1060.6375" y2="1606.5" fill="rgb(0, 0, 0)" stroke="rgb(153, 153, 153)" stroke-width="1.5px"></line></g></g><g><g><line x1="117.84861111111111" y1="0" x2="117.84861111111111" y2="378" fill="rgb(0, 0, 0)" stroke="rgb(153, 153, 153)" stroke-width="1.5px"></line></g></g><g><g><g><g><g><path stroke="rgb(255, 112, 67)" stroke-width="2px" d="M153.20319444444445,427.81919330516337L155.56016666666667,377.56425950159866L157.91713888888887,347.4167439205834L160.27411111111113,349.0188939809243L162.63108333333332,300.75957195127893L164.98805555555558,321.0249377310963L167.34502777777777,303.65223397617086L169.702,253.85344710963204L172.05897222222222,233.8182233312487L174.41594444444445,231.64092780863518L176.77291666666667,200.80325408174437L179.1298888888889,192.1444435868375L181.4868611111111,186.94916296171053L183.84383333333335,183.831996628486L186.20080555555555,132.74293668263292L188.5577777777778,151.30826447216552L190.91475,191.9787119201226L193.27172222222225,157.31847549697886L195.62869444444445,146.36608498438858L197.98566666666667,149.63840104688654L200.3426388888889,112.22679024225263L202.69961111111112,119.31107418919365L205.05658333333335,182.62414474860975L207.41355555555558,171.3932368241444L209.77052777777777,174.49844209863744L212.12750000000003,156.6740652448864L214.48447222222222,155.82318914652237L216.84144444444448,145.46891348492366L219.19841666666667,149.10009809158325L221.5553888888889,131.59130885312985L223.91236111111112,170.30478531429236L226.26933333333335,183.68912118907653L228.62630555555558,172.03222271318427L230.98327777777777,165.03808362781626L233.34025,170.68535017673526L235.69722222222222,154.38621010596222L238.05419444444445,144.60672606354896L240.41116666666667,148.58278563813627L242.7681388888889,131.28092138286382L245.12511111111112,140.5873028297242L247.48208333333335,146.17113169783647L249.83905555555555,139.6776790187006L252.1960277777778,155.46910741122238L254.553,135.41271444673163L256.9099722222222,133.22262866803896L259.26694444444445,112.22107720082299L261.6239166666667,99.62014632049352L263.9808888888889,101.9033377922962L266.3378611111111,132.8045026753779L268.69483333333335,131.6577016052268L271.0518055555555,130.96962096313595L273.4087777777778,150.2442725778817L275.76575,161.80906354672908L278.12272222222225,149.06043812803748L280.4796944444444,111.88001287682233L282.8366666666667,119.1030077260934L285.1936388888889,103.74930463565627L287.55061111111115,104.38083278139385L289.9075833333333,124.4472496688365L292.26455555555555,116.79959980130177L294.6215277777778,112.211009880781L296.97850000000005,89.77035592846866L299.3354722222222,76.30596355708116L301.69244444444445,78.07107813424862L304.0494166666667,108.66139688054923L306.4063888888889,127.01558812832948L308.7633611111111,98.65310287699774L311.12033333333335,101.3231117261985L313.4773055555556,93.08136703571904L315.83427777777774,97.98007022143139L318.19125,100.91929213285898L320.54822222222225,92.83907527971527L322.9051944444445,68.3034451678292L325.26216666666664,73.26956710069764L327.61913888888887,86.09299026041853L329.97611111111115,74.09954415625118L332.3330833333334,66.90347649375062L334.69005555555555,82.27333589625023L337.04702777777777,91.49525153775001L339.404,106.87215092265008L341.7609722222223,96.41079055359015L344.11794444444445,99.97772433215408L346.4749166666667,102.11788459929254L348.8318888888889,123.0894807595755L351.1888611111111,135.67243845574532L353.54583333333335,123.53471307344725L355.9028055555556,116.25207784406851L358.2597777777778,121.72624670644116L360.61675,105.3232480238646L362.9737222222222,85.63769881431865L365.3306944444445,73.82636928859124L367.6876666666667,106.11457157315468L370.0446388888889,95.9562429438927L372.4016111111111,89.86124576633554L374.7585833333334,76.3604974598014L377.1155555555556,58.41629847588084L379.47252777777777,106.71227908552852L381.8295,145.53361745131716L384.1864722222222,139.29517047079037L386.5434444444445,125.70835228247405L388.9004166666667,88.02501136948442L391.2573888888889,104.79000682169064L393.6143611111111,105.00525409301427L395.97133333333335,105.13440245580857L398.3283055555556,85.52439147348518L400.6852777777778,122.97713488409106L403.04225,145.44878093045463L405.39922222222225,129.40051855827286L407.7561944444444,109.92781113496386L410.1131666666667,88.40043668097827L412.4701388888889,95.17151200858713L414.82711111111115,89.39040720515227L417.1840833333333,135.14049432309145L419.54105555555554,113.37179659385475L421.8980277777778,110.15432795631293L424.25500000000005,108.22384677378771L426.6119722222222,97.22180806427275L428.96894444444445,110.30808483856377L431.32591666666667,98.47235090313818L433.68288888888895,111.05841054188298L436.0398611111111,98.92254632512967L438.39683333333335,81.79727779507773L440.7538055555556,71.52211667704667L443.1107777777778,94.88827000622801L445.46775,89.2204620037369L447.82472222222225,95.66352720224208L450.1816944444445,89.68561632134534L452.5386666666667,76.25511979280714L454.89563888888887,97.72807187568435L457.25261111111115,81.0805931254106L459.6095833333334,110.46710587524636L461.96655555555554,88.72401352514783L464.32352777777777,105.20940811508876L466.6805,95.41314486905327L469.0374722222223,119.06663692143206L471.39444444444445,103.72748215285915L473.75141666666667,133.89898929171545L476.1083888888889,102.7831435750292L478.4653611111112,113.64488614501764L480.82233333333335,130.00568168701056L483.1793055555556,129.97840901220636L485.5362777777778,110.27454540732394L487.89325,88.60847724439428L490.25022222222225,85.45258634663676L492.6071944444445,73.71530180798207L494.9641666666667,66.67293108478927L497.3211388888889,52.603758650873544L499.6781111111111,54.006005190524164L502.0350833333334,54.84735311431447L504.3920555555556,55.35216186858864L506.7490277777778,45.8112971211531L509.106,59.77427827269186L511.4629722222222,58.30831696361505L513.8199444444444,57.428740178169015L516.1769166666667,76.58849410690125L518.5338888888889,88.0843464641409L520.8908611111111,75.2943578784846L523.2478333333333,57.77661472709077L525.6048055555556,47.26596883625456L527.9617777777778,50.80333130175277L530.31875,62.76949878105159L532.6757222222222,60.105449268630984L535.0326944444445,68.35076956117868L537.3896666666667,73.29796173670712L539.7466388888888,56.57877704202424L542.103611111111,56.39101622521456L544.4605833333334,46.434609735128724L546.8175555555556,60.148265841077425L549.1745277777778,68.37645950464638L551.5315,63.46962570278773L553.8884722222223,60.52552542167256L556.2454444444445,58.7590652530036L558.6024166666666,67.54293915180226L560.9593888888888,92.50076349108143L563.3163611111111,77.94420809464876L565.6733333333334,59.36652485678925L568.0303055555556,77.75116491407356L570.3872777777779,98.62569894844417L572.7442500000001,81.61916936906651L575.1012222222223,71.41525162143992L577.4581944444444,65.29290097286393L579.8151666666666,61.6194905837184L582.1721388888889,59.415444350231105L584.5291111111111,67.93676661013885L586.8860833333333,63.20580996608329L589.2430555555557,60.36723597965001L591.6000277777779,58.664091587790075L593.9570000000001,67.48595495267415L596.3139722222222,72.77907297160442L598.6709444444444,56.26744378296274L601.0279166666667,56.20421626977758L603.3848888888889,66.01002976186656L605.7418611111111,52.20601785712002L608.0988333333333,63.61111071427215L610.4558055555556,70.45416642856331L612.8127777777778,74.55999985713791L615.16975,67.17974991428282L617.5267222222222,72.59534994856959L619.8836944444445,56.157209969141746L622.2406666666667,65.9818259814852L624.5976388888889,71.87659558889122L626.9546111111111,65.56970735333462L629.3115833333334,61.78557441200074L631.6685555555555,69.35884464720034L634.0255277777777,73.90280678832012L636.3825,56.941684072992075L638.7394722222223,46.76501044379533L641.0964444444445,50.50275626627715L643.4534166666667,52.74540375976624L645.810388888889,44.247242255859824L648.1673611111112,58.83584535351582L650.5243333333333,47.90150721210954L652.8813055555555,61.02840432726585L655.2382777777777,59.06079259635953L657.5952500000001,77.56772555781579L659.9522222222223,68.98438533468955L662.3091944444445,53.99063120081373L664.6661666666668,54.8381287204882L667.023138888889,55.34662723229291L669.3801111111111,45.80797633937576L671.7370833333333,40.08478580362543L674.0940555555555,46.49462148217524L676.4510277777778,60.18427288930505L678.808,48.71056373358302L681.1649722222223,51.670088240149724L683.5219444444446,63.28955294408975L685.8789166666667,60.417481766453804L688.2358888888889,48.85048905987228L690.5928611111111,41.91029343592337L692.9498333333333,37.74617606155408L695.3068055555556,45.09145563693234L697.6637777777778,39.65487338215938L700.02075,36.39292402929563L702.3777222222222,44.279504417577286L704.7346944444445,39.167702650546445L707.0916666666667,36.10062159032795L709.4486388888889,44.10412295419683L711.8056111111111,48.906223772518054L714.1625833333334,51.78748426351078L716.5195555555556,53.51624055810641L718.8765277777778,44.70974433486393L721.2335,49.2695966009183L723.5904722222222,61.849257960551114L725.9474444444444,69.3970547763306L728.3044166666667,54.23823286579845L730.661388888889,54.98668971947914L733.0183611111112,55.435763831687474L735.3753333333334,45.861458299012504L737.7323055555556,49.960624979407505L740.0892777777779,72.10762498764457L742.44625,85.3958249925869L744.8032222222222,63.83749499555213L747.1601944444444,50.90249699733124L749.5171666666668,82.51649819839876L751.874138888889,62.10989891903929L754.2311111111112,49.86593935142368L756.5880833333334,42.51956361085413L758.9450555555555,38.11173816651258L761.3020277777778,35.46704289990751L763.659,43.72397573994449L766.0159722222222,38.834385443966625L768.3729444444444,45.7443812663799L770.7299166666667,49.890378759827996L773.086888888889,62.2217272558969L775.4438611111112,69.62053635353828L777.8008333333333,64.21607181212296L780.1578055555556,60.973393087273735L782.5147777777778,68.87153585236435L784.87175,73.61042151141852L787.2287222222222,66.61000290685115L789.5856944444445,72.25350174411082L791.9426666666667,75.63960104646638L794.2996388888889,57.98376062787986L796.6566111111111,76.92150637672782L799.0135833333334,68.59665382603671L801.3705555555556,63.60174229562197L803.7275277777778,50.76104537737314L806.0845,62.74412722642401L808.4414722222223,50.246476335854496L810.7984444444445,52.59163580151268L813.1554166666667,53.998731480907566L815.5123888888888,54.84298888854462L817.8693611111111,45.505793333126775L820.2263333333334,49.74722599987602L822.5833055555556,52.29208559992565L824.9402777777779,53.81900135995546L827.2972500000001,74.42265081597333L829.6542222222223,67.09734048958401L832.0111944444445,92.23340429375038L834.3681666666666,67.94004257625028L836.7251388888889,82.89527554575032L839.0821111111111,62.33716532745019L841.4390833333333,69.68979919647022L843.7960555555557,64.25762951788207L846.1530277777779,51.15457771072924L848.5100000000001,62.98024662643765L850.8669722222222,70.07564797586247L853.2239444444444,103.86413878551757L855.5809166666667,94.60598327131055L857.9378888888889,69.36358996278636L860.2948611111111,54.21815397767176L862.6518333333333,54.974642386603065L865.0088055555557,45.584785431961905L867.3657777777779,49.79462125917708L869.72275,42.476772755506325L872.0797222222222,47.9298136533037L874.4366944444445,51.20163819198223L876.7936666666667,53.164732915189305L879.1506388888889,44.49883974911354L881.5076111111111,39.29930384946817L883.8645833333334,36.17958230968088L886.2215555555556,34.30774938580853L888.5785277777778,43.028399631485065L890.9355,38.41703977889108L893.2924722222223,35.65022386733475L895.6494444444445,53.67763432040087L898.0064166666667,44.80658059224057L900.363388888889,39.483948355344324L902.7203611111112,55.97786901320661L905.0773333333334,46.18672140792396L907.4343055555555,40.31203284475446L909.7912777777777,36.78721970685268L912.1482500000001,34.67233182411171L914.5052222222223,33.40339909446695L916.8621944444445,52.3295394566802L919.2191666666668,53.84147367400807L921.576138888889,44.90488420440484L923.9331111111111,39.54293052264299L926.2900833333333,46.169508313585695L928.6470555555555,50.14545498815134L931.0040277777778,42.68727299289083L933.361,67.74361379573436L935.7179722222223,53.24616827744069L938.0749444444446,44.54770096646449L940.4319166666668,39.32862057987865L942.7888888888889,36.19717234792722L945.1458611111111,54.00580340875646L947.5028333333333,54.84723204525381L949.8598055555556,65.19583922715238L952.2167777777778,61.561253536291446L954.57375,49.53675212177494L956.9307222222224,42.322051273064965L959.2876944444446,47.83698076383892L961.6446666666667,51.1459384583033L964.0016388888889,43.28756307498202L966.3586111111111,58.26003784498912" style="fill: none;" fill="none"></path></g></g></g></g><g opacity="0.2"><g><g><g><path stroke="rgb(255, 112, 67)" stroke-width="2px" d="M141.41833333333335,425.25L143.77530555555558,326.81250000000006L146.13227777777777,499.078125L148.48925000000003,351.42187500000006L150.84622222222222,376.03125L153.20319444444445,449.859375L155.56016666666667,302.203125L157.91713888888887,302.203125L160.27411111111113,351.42187500000006L162.63108333333332,228.37500000000003L164.98805555555558,351.42187500000006L167.34502777777777,277.59375000000006L169.702,179.15625L172.05897222222222,203.76562500000003L174.41594444444445,228.37500000000003L176.77291666666667,154.54687500000003L179.1298888888889,179.15625L181.4868611111111,179.15625L183.84383333333335,179.15625L186.20080555555555,56.10937500000004L188.5577777777778,179.15625L190.91475,252.98437500000006L193.27172222222225,105.32812500000001L195.62869444444445,129.93750000000003L197.98566666666667,154.54687500000003L200.3426388888889,56.10937500000004L202.69961111111112,129.93750000000003L205.05658333333335,277.59375000000006L207.41355555555558,154.54687500000003L209.77052777777777,179.15625L212.12750000000003,129.93750000000003L214.48447222222222,154.54687500000003L216.84144444444448,129.93750000000003L219.19841666666667,154.54687500000003L221.5553888888889,105.32812500000001L223.91236111111112,228.37500000000003L226.26933333333335,203.76562500000003L228.62630555555558,154.54687500000003L230.98327777777777,154.54687500000003L233.34025,179.15625L235.69722222222222,129.93750000000003L238.05419444444445,129.93750000000003L240.41116666666667,154.54687500000003L242.7681388888889,105.32812500000001L245.12511111111112,154.54687500000003L247.48208333333335,154.54687500000003L249.83905555555555,129.93750000000003L252.1960277777778,179.15625L254.553,105.32812500000001L256.9099722222222,129.93750000000003L259.26694444444445,80.71875000000003L261.6239166666667,80.71875000000003L263.9808888888889,105.32812500000001L266.3378611111111,179.15625L268.69483333333335,129.93750000000003L271.0518055555555,129.93750000000003L273.4087777777778,179.15625L275.76575,179.15625L278.12272222222225,129.93750000000003L280.4796944444444,56.10937500000004L282.8366666666667,129.93750000000003L285.1936388888889,80.71875000000003L287.55061111111115,105.32812500000001L289.9075833333333,154.54687500000003L292.26455555555555,105.32812500000001L294.6215277777778,105.32812500000001L296.97850000000005,56.10937500000004L299.3354722222222,56.10937500000004L301.69244444444445,80.71875000000003L304.0494166666667,154.54687500000003L306.4063888888889,154.54687500000003L308.7633611111111,56.10937500000004L311.12033333333335,105.32812500000001L313.4773055555556,80.71875000000003L315.83427777777774,105.32812500000001L318.19125,105.32812500000001L320.54822222222225,80.71875000000003L322.9051944444445,31.500000000000014L325.26216666666664,80.71875000000003L327.61913888888887,105.32812500000001L329.97611111111115,56.10937500000004L332.3330833333334,56.10937500000004L334.69005555555555,105.32812500000001L337.04702777777777,105.32812500000001L339.404,129.93750000000003L341.7609722222223,80.71875000000003L344.11794444444445,105.32812500000001L346.4749166666667,105.32812500000001L348.8318888888889,154.54687500000003L351.1888611111111,154.54687500000003L353.54583333333335,105.32812500000001L355.9028055555556,105.32812500000001L358.2597777777778,129.93750000000003L360.61675,80.71875000000003L362.9737222222222,56.10937500000004L365.3306944444445,56.10937500000004L367.6876666666667,154.54687500000003L370.0446388888889,80.71875000000003L372.4016111111111,80.71875000000003L374.7585833333334,56.10937500000004L377.1155555555556,31.500000000000014L379.47252777777777,179.15625L381.8295,203.76562500000003L384.1864722222222,129.93750000000003L386.5434444444445,105.32812500000001L388.9004166666667,31.500000000000014L391.2573888888889,129.93750000000003L393.6143611111111,105.32812500000001L395.97133333333335,105.32812500000001L398.3283055555556,56.10937500000004L400.6852777777778,179.15625L403.04225,179.15625L405.39922222222225,105.32812500000001L407.7561944444444,80.71875000000003L410.1131666666667,56.10937500000004L412.4701388888889,105.32812500000001L414.82711111111115,80.71875000000003L417.1840833333333,203.76562500000003L419.54105555555554,80.71875000000003L421.8980277777778,105.32812500000001L424.25500000000005,105.32812500000001L426.6119722222222,80.71875000000003L428.96894444444445,129.93750000000003L431.32591666666667,80.71875000000003L433.68288888888895,129.93750000000003L436.0398611111111,80.71875000000003L438.39683333333335,56.10937500000004L440.7538055555556,56.10937500000004L443.1107777777778,129.93750000000003L445.46775,80.71875000000003L447.82472222222225,105.32812500000001L450.1816944444445,80.71875000000003L452.5386666666667,56.10937500000004L454.89563888888887,129.93750000000003L457.25261111111115,56.10937500000004L459.6095833333334,154.54687500000003L461.96655555555554,56.10937500000004L464.32352777777777,129.93750000000003L466.6805,80.71875000000003L469.0374722222223,154.54687500000003L471.39444444444445,80.71875000000003L473.75141666666667,179.15625L476.1083888888889,56.10937500000004L478.4653611111112,129.93750000000003L480.82233333333335,154.54687500000003L483.1793055555556,129.93750000000003L485.5362777777778,80.71875000000003L487.89325,56.10937500000004L490.25022222222225,80.71875000000003L492.6071944444445,56.10937500000004L494.9641666666667,56.10937500000004L497.3211388888889,31.500000000000014L499.6781111111111,56.10937500000004L502.0350833333334,56.10937500000004L504.3920555555556,56.10937500000004L506.7490277777778,31.500000000000014L509.106,80.71875000000003L511.4629722222222,56.10937500000004L513.8199444444444,56.10937500000004L516.1769166666667,105.32812500000001L518.5338888888889,105.32812500000001L520.8908611111111,56.10937500000004L523.2478333333333,31.500000000000014L525.6048055555556,31.500000000000014L527.9617777777778,56.10937500000004L530.31875,80.71875000000003L532.6757222222222,56.10937500000004L535.0326944444445,80.71875000000003L537.3896666666667,80.71875000000003L539.7466388888888,31.500000000000014L542.103611111111,56.10937500000004L544.4605833333334,31.500000000000014L546.8175555555556,80.71875000000003L549.1745277777778,80.71875000000003L551.5315,56.10937500000004L553.8884722222223,56.10937500000004L556.2454444444445,56.10937500000004L558.6024166666666,80.71875000000003L560.9593888888888,129.93750000000003L563.3163611111111,56.10937500000004L565.6733333333334,31.500000000000014L568.0303055555556,105.32812500000001L570.3872777777779,129.93750000000003L572.7442500000001,56.10937500000004L575.1012222222223,56.10937500000004L577.4581944444444,56.10937500000004L579.8151666666666,56.10937500000004L582.1721388888889,56.10937500000004L584.5291111111111,80.71875000000003L586.8860833333333,56.10937500000004L589.2430555555557,56.10937500000004L591.6000277777779,56.10937500000004L593.9570000000001,80.71875000000003L596.3139722222222,80.71875000000003L598.6709444444444,31.500000000000014L601.0279166666667,56.10937500000004L603.3848888888889,80.71875000000003L605.7418611111111,31.500000000000014L608.0988333333333,80.71875000000003L610.4558055555556,80.71875000000003L612.8127777777778,80.71875000000003L615.16975,56.10937500000004L617.5267222222222,80.71875000000003L619.8836944444445,31.500000000000014L622.2406666666667,80.71875000000003L624.5976388888889,80.71875000000003L626.9546111111111,56.10937500000004L629.3115833333334,56.10937500000004L631.6685555555555,80.71875000000003L634.0255277777777,80.71875000000003L636.3825,31.500000000000014L638.7394722222223,31.500000000000014L641.0964444444445,56.10937500000004L643.4534166666667,56.10937500000004L645.810388888889,31.500000000000014L648.1673611111112,80.71875000000003L650.5243333333333,31.500000000000014L652.8813055555555,80.71875000000003L655.2382777777777,56.10937500000004L657.5952500000001,105.32812500000001L659.9522222222223,56.10937500000004L662.3091944444445,31.500000000000014L664.6661666666668,56.10937500000004L667.023138888889,56.10937500000004L669.3801111111111,31.500000000000014L671.7370833333333,31.500000000000014L674.0940555555555,56.10937500000004L676.4510277777778,80.71875000000003L678.808,31.500000000000014L681.1649722222223,56.10937500000004L683.5219444444446,80.71875000000003L685.8789166666667,56.10937500000004L688.2358888888889,31.500000000000014L690.5928611111111,31.500000000000014L692.9498333333333,31.500000000000014L695.3068055555556,56.10937500000004L697.6637777777778,31.500000000000014L700.02075,31.500000000000014L702.3777222222222,56.10937500000004L704.7346944444445,31.500000000000014L707.0916666666667,31.500000000000014L709.4486388888889,56.10937500000004L711.8056111111111,56.10937500000004L714.1625833333334,56.10937500000004L716.5195555555556,56.10937500000004L718.8765277777778,31.500000000000014L721.2335,56.10937500000004L723.5904722222222,80.71875000000003L725.9474444444444,80.71875000000003L728.3044166666667,31.500000000000014L730.661388888889,56.10937500000004L733.0183611111112,56.10937500000004L735.3753333333334,31.500000000000014L737.7323055555556,56.10937500000004L740.0892777777779,105.32812500000001L742.44625,105.32812500000001L744.8032222222222,31.500000000000014L747.1601944444444,31.500000000000014L749.5171666666668,129.93750000000003L751.874138888889,31.500000000000014L754.2311111111112,31.500000000000014L756.5880833333334,31.500000000000014L758.9450555555555,31.500000000000014L761.3020277777778,31.500000000000014L763.659,56.10937500000004L766.0159722222222,31.500000000000014L768.3729444444444,56.10937500000004L770.7299166666667,56.10937500000004L773.086888888889,80.71875000000003L775.4438611111112,80.71875000000003L777.8008333333333,56.10937500000004L780.1578055555556,56.10937500000004L782.5147777777778,80.71875000000003L784.87175,80.71875000000003L787.2287222222222,56.10937500000004L789.5856944444445,80.71875000000003L791.9426666666667,80.71875000000003L794.2996388888889,31.500000000000014L796.6566111111111,105.32812500000001L799.0135833333334,56.10937500000004L801.3705555555556,56.10937500000004L803.7275277777778,31.500000000000014L806.0845,80.71875000000003L808.4414722222223,31.500000000000014L810.7984444444445,56.10937500000004L813.1554166666667,56.10937500000004L815.5123888888888,56.10937500000004L817.8693611111111,31.500000000000014L820.2263333333334,56.10937500000004L822.5833055555556,56.10937500000004L824.9402777777779,56.10937500000004L827.2972500000001,105.32812500000001L829.6542222222223,56.10937500000004L832.0111944444445,129.93750000000003L834.3681666666666,31.500000000000014L836.7251388888889,105.32812500000001L839.0821111111111,31.500000000000014L841.4390833333333,80.71875000000003L843.7960555555557,56.10937500000004L846.1530277777779,31.500000000000014L848.5100000000001,80.71875000000003L850.8669722222222,80.71875000000003L853.2239444444444,154.54687500000003L855.5809166666667,80.71875000000003L857.9378888888889,31.500000000000014L860.2948611111111,31.500000000000014L862.6518333333333,56.10937500000004L865.0088055555557,31.500000000000014L867.3657777777779,56.10937500000004L869.72275,31.500000000000014L872.0797222222222,56.10937500000004L874.4366944444445,56.10937500000004L876.7936666666667,56.10937500000004L879.1506388888889,31.500000000000014L881.5076111111111,31.500000000000014L883.8645833333334,31.500000000000014L886.2215555555556,31.500000000000014L888.5785277777778,56.10937500000004L890.9355,31.500000000000014L893.2924722222223,31.500000000000014L895.6494444444445,80.71875000000003L898.0064166666667,31.500000000000014L900.363388888889,31.500000000000014L902.7203611111112,80.71875000000003L905.0773333333334,31.500000000000014L907.4343055555555,31.500000000000014L909.7912777777777,31.500000000000014L912.1482500000001,31.500000000000014L914.5052222222223,31.500000000000014L916.8621944444445,80.71875000000003L919.2191666666668,56.10937500000004L921.576138888889,31.500000000000014L923.9331111111111,31.500000000000014L926.2900833333333,56.10937500000004L928.6470555555555,56.10937500000004L931.0040277777778,31.500000000000014L933.361,105.32812500000001L935.7179722222223,31.500000000000014L938.0749444444446,31.500000000000014L940.4319166666668,31.500000000000014L942.7888888888889,31.500000000000014L945.1458611111111,80.71875000000003L947.5028333333333,56.10937500000004L949.8598055555556,80.71875000000003L952.2167777777778,56.10937500000004L954.57375,31.500000000000014L956.9307222222224,31.500000000000014L959.2876944444446,56.10937500000004L961.6446666666667,56.10937500000004L964.0016388888889,31.500000000000014L966.3586111111111,80.71875000000003" style="fill: none;" fill="none"></path></g></g></g></g></g></g><g transform="translate(51, 378)" clip-path="url(#clip_1)"><clipPath id="clip_1"><rect width="1060" height="22"></rect></clipPath><g><g><line x1="0" y1="0" x2="0" y2="5" style="visibility: inherit;" fill="rgb(0, 0, 0)" stroke="rgb(204, 204, 204)" stroke-width="1px"></line><line x1="117.84861111111111" y1="0" x2="117.84861111111111" y2="5" style="visibility: inherit;" fill="rgb(0, 0, 0)" stroke="rgb(204, 204, 204)" stroke-width="1px"></line><line x1="235.69722222222222" y1="0" x2="235.69722222222222" y2="5" style="visibility: inherit;" fill="rgb(0, 0, 0)" stroke="rgb(204, 204, 204)" stroke-width="1px"></line><line x1="353.54583333333335" y1="0" x2="353.54583333333335" y2="5" style="visibility: inherit;" fill="rgb(0, 0, 0)" stroke="rgb(204, 204, 204)" stroke-width="1px"></line><line x1="471.39444444444445" y1="0" x2="471.39444444444445" y2="5" style="visibility: inherit;" fill="rgb(0, 0, 0)" stroke="rgb(204, 204, 204)" stroke-width="1px"></line><line x1="589.2430555555557" y1="0" x2="589.2430555555557" y2="5" style="visibility: inherit;" fill="rgb(0, 0, 0)" stroke="rgb(204, 204, 204)" stroke-width="1px"></line><line x1="707.0916666666667" y1="0" x2="707.0916666666667" y2="5" style="visibility: inherit;" fill="rgb(0, 0, 0)" stroke="rgb(204, 204, 204)" stroke-width="1px"></line><line x1="824.9402777777779" y1="0" x2="824.9402777777779" y2="5" style="visibility: inherit;" fill="rgb(0, 0, 0)" stroke="rgb(204, 204, 204)" stroke-width="1px"></line><line x1="942.7888888888889" y1="0" x2="942.7888888888889" y2="5" style="visibility: inherit;" fill="rgb(0, 0, 0)" stroke="rgb(204, 204, 204)" stroke-width="1px"></line><line x1="1060.6375" y1="0" x2="1060.6375" y2="5" style="visibility: inherit;" fill="rgb(0, 0, 0)" stroke="rgb(204, 204, 204)" stroke-width="1px"></line></g><g transform="translate(0, 8)"><text x="0" y="0" dx="0em" dy="0.95em" style="text-anchor: middle; visibility: hidden; font-family: Roboto, sans-serif; font-size: 12px; font-weight: 200;" fill="rgb(50, 49, 63)" stroke="none" stroke-width="1px">-500</text><text x="117.84861111111111" y="0" dx="0em" dy="0.95em" style="text-anchor: middle; visibility: inherit; font-family: Roboto, sans-serif; font-size: 12px; font-weight: 200;" fill="rgb(50, 49, 63)" stroke="none" stroke-width="1px">0</text><text x="235.69722222222222" y="0" dx="0em" dy="0.95em" style="text-anchor: middle; visibility: inherit; font-family: Roboto, sans-serif; font-size: 12px; font-weight: 200;" fill="rgb(50, 49, 63)" stroke="none" stroke-width="1px">500</text><text x="353.54583333333335" y="0" dx="0em" dy="0.95em" style="text-anchor: middle; visibility: inherit; font-family: Roboto, sans-serif; font-size: 12px; font-weight: 200;" fill="rgb(50, 49, 63)" stroke="none" stroke-width="1px">1k</text><text x="471.39444444444445" y="0" dx="0em" dy="0.95em" style="text-anchor: middle; visibility: inherit; font-family: Roboto, sans-serif; font-size: 12px; font-weight: 200;" fill="rgb(50, 49, 63)" stroke="none" stroke-width="1px">1.5k</text><text x="589.2430555555557" y="0" dx="0em" dy="0.95em" style="text-anchor: middle; visibility: inherit; font-family: Roboto, sans-serif; font-size: 12px; font-weight: 200;" fill="rgb(50, 49, 63)" stroke="none" stroke-width="1px">2k</text><text x="707.0916666666667" y="0" dx="0em" dy="0.95em" style="text-anchor: middle; visibility: inherit; font-family: Roboto, sans-serif; font-size: 12px; font-weight: 200;" fill="rgb(50, 49, 63)" stroke="none" stroke-width="1px">2.5k</text><text x="824.9402777777779" y="0" dx="0em" dy="0.95em" style="text-anchor: middle; visibility: inherit; font-family: Roboto, sans-serif; font-size: 12px; font-weight: 200;" fill="rgb(50, 49, 63)" stroke="none" stroke-width="1px">3k</text><text x="942.7888888888889" y="0" dx="0em" dy="0.95em" style="text-anchor: middle; visibility: inherit; font-family: Roboto, sans-serif; font-size: 12px; font-weight: 200;" fill="rgb(50, 49, 63)" stroke="none" stroke-width="1px">3.5k</text><text x="1060.6375" y="0" dx="0em" dy="0.95em" style="text-anchor: middle; visibility: hidden; font-family: Roboto, sans-serif; font-size: 12px; font-weight: 200;" fill="rgb(50, 49, 63)" stroke="none" stroke-width="1px">4k</text></g><line x1="0" y1="0" x2="1060.6375" y2="0" fill="rgb(0, 0, 0)" stroke="rgb(204, 204, 204)" stroke-width="1px"></line></g></g></g></g></svg>