<svg viewBox="0 0 1112.2000732421875 400" xmlns="http://www.w3.org/2000/svg"><g><g><g><g><g><line x1="53.1875" y1="377" x2="48.1875" y2="377" style="visibility: inherit;" fill="rgb(0, 0, 0)" stroke="rgb(204, 204, 204)" stroke-width="1px"></line><line x1="53.1875" y1="329.875" x2="48.1875" y2="329.875" style="visibility: inherit;" fill="rgb(0, 0, 0)" stroke="rgb(204, 204, 204)" stroke-width="1px"></line><line x1="53.1875" y1="282.75" x2="48.1875" y2="282.75" style="visibility: inherit;" fill="rgb(0, 0, 0)" stroke="rgb(204, 204, 204)" stroke-width="1px"></line><line x1="53.1875" y1="235.62499999999997" x2="48.1875" y2="235.62499999999997" style="visibility: inherit;" fill="rgb(0, 0, 0)" stroke="rgb(204, 204, 204)" stroke-width="1px"></line><line x1="53.1875" y1="188.49999999999997" x2="48.1875" y2="188.49999999999997" style="visibility: inherit;" fill="rgb(0, 0, 0)" stroke="rgb(204, 204, 204)" stroke-width="1px"></line><line x1="53.1875" y1="141.375" x2="48.1875" y2="141.375" style="visibility: inherit;" fill="rgb(0, 0, 0)" stroke="rgb(204, 204, 204)" stroke-width="1px"></line><line x1="53.1875" y1="94.25" x2="48.1875" y2="94.25" style="visibility: inherit;" fill="rgb(0, 0, 0)" stroke="rgb(204, 204, 204)" stroke-width="1px"></line><line x1="53.1875" y1="47.125" x2="48.1875" y2="47.125" style="visibility: inherit;" fill="rgb(0, 0, 0)" stroke="rgb(204, 204, 204)" stroke-width="1px"></line><line x1="53.1875" y1="0" x2="48.1875" y2="0" style="visibility: inherit;" fill="rgb(0, 0, 0)" stroke="rgb(204, 204, 204)" stroke-width="1px"></line></g><g transform="translate(43.1875, 0)"><text x="0" y="377" dx="0em" dy="0.3em" style="text-anchor: end; visibility: hidden; font-family: Roboto, sans-serif; font-size: 12px; font-weight: 200;" fill="rgb(50, 49, 63)" stroke="none" stroke-width="1px">-0.1</text><text x="0" y="329.875" dx="0em" dy="0.3em" style="text-anchor: end; visibility: inherit; font-family: Roboto, sans-serif; font-size: 12px; font-weight: 200;" fill="rgb(50, 49, 63)" stroke="none" stroke-width="1px">0</text><text x="0" y="282.75" dx="0em" dy="0.3em" style="text-anchor: end; visibility: inherit; font-family: Roboto, sans-serif; font-size: 12px; font-weight: 200;" fill="rgb(50, 49, 63)" stroke="none" stroke-width="1px">0.1</text><text x="0" y="235.62499999999997" dx="0em" dy="0.3em" style="text-anchor: end; visibility: inherit; font-family: Roboto, sans-serif; font-size: 12px; font-weight: 200;" fill="rgb(50, 49, 63)" stroke="none" stroke-width="1px">0.2</text><text x="0" y="188.49999999999997" dx="0em" dy="0.3em" style="text-anchor: end; visibility: inherit; font-family: Roboto, sans-serif; font-size: 12px; font-weight: 200;" fill="rgb(50, 49, 63)" stroke="none" stroke-width="1px">0.3</text><text x="0" y="141.375" dx="0em" dy="0.3em" style="text-anchor: end; visibility: inherit; font-family: Roboto, sans-serif; font-size: 12px; font-weight: 200;" fill="rgb(50, 49, 63)" stroke="none" stroke-width="1px">0.4</text><text x="0" y="94.25" dx="0em" dy="0.3em" style="text-anchor: end; visibility: inherit; font-family: Roboto, sans-serif; font-size: 12px; font-weight: 200;" fill="rgb(50, 49, 63)" stroke="none" stroke-width="1px">0.5</text><text x="0" y="47.125" dx="0em" dy="0.3em" style="text-anchor: end; visibility: inherit; font-family: Roboto, sans-serif; font-size: 12px; font-weight: 200;" fill="rgb(50, 49, 63)" stroke="none" stroke-width="1px">0.6</text><text x="0" y="0" dx="0em" dy="0.3em" style="text-anchor: end; visibility: hidden; font-family: Roboto, sans-serif; font-size: 12px; font-weight: 200;" fill="rgb(50, 49, 63)" stroke="none" stroke-width="1px">0.7</text></g><line x1="53.1875" y1="0" x2="53.1875" y2="377" fill="rgb(0, 0, 0)" stroke="rgb(204, 204, 204)" stroke-width="1px"></line></g></g><g transform="translate(53, 0)" clip-path="url(#clip_0)"><clipPath id="clip_0"><rect width="1059" height="377"></rect></clipPath><g><g><g><line x1="0" y1="0" x2="0" y2="377" fill="rgb(0, 0, 0)" stroke="rgb(60, 60, 60)" stroke-width="1px" opacity="0.25"></line><line x1="117.66805555555555" y1="0" x2="117.66805555555555" y2="377" fill="rgb(0, 0, 0)" stroke="rgb(60, 60, 60)" stroke-width="1px" opacity="0.25"></line><line x1="235.3361111111111" y1="0" x2="235.3361111111111" y2="377" fill="rgb(0, 0, 0)" stroke="rgb(60, 60, 60)" stroke-width="1px" opacity="0.25"></line><line x1="353.00416666666666" y1="0" x2="353.00416666666666" y2="377" fill="rgb(0, 0, 0)" stroke="rgb(60, 60, 60)" stroke-width="1px" opacity="0.25"></line><line x1="470.6722222222222" y1="0" x2="470.6722222222222" y2="377" fill="rgb(0, 0, 0)" stroke="rgb(60, 60, 60)" stroke-width="1px" opacity="0.25"></line><line x1="588.3402777777778" y1="0" x2="588.3402777777778" y2="377" fill="rgb(0, 0, 0)" stroke="rgb(60, 60, 60)" stroke-width="1px" opacity="0.25"></line><line x1="706.0083333333333" y1="0" x2="706.0083333333333" y2="377" fill="rgb(0, 0, 0)" stroke="rgb(60, 60, 60)" stroke-width="1px" opacity="0.25"></line><line x1="823.6763888888889" y1="0" x2="823.6763888888889" y2="377" fill="rgb(0, 0, 0)" stroke="rgb(60, 60, 60)" stroke-width="1px" opacity="0.25"></line><line x1="941.3444444444444" y1="0" x2="941.3444444444444" y2="377" fill="rgb(0, 0, 0)" stroke="rgb(60, 60, 60)" stroke-width="1px" opacity="0.25"></line><line x1="1059.0125" y1="0" x2="1059.0125" y2="377" fill="rgb(0, 0, 0)" stroke="rgb(60, 60, 60)" stroke-width="1px" opacity="0.25"></line></g><g><line x1="0" y1="377" x2="1059.0125" y2="377" fill="rgb(0, 0, 0)" stroke="rgb(60, 60, 60)" stroke-width="1px" opacity="0.25"></line><line x1="0" y1="329.875" x2="1059.0125" y2="329.875" fill="rgb(0, 0, 0)" stroke="rgb(60, 60, 60)" stroke-width="1px" opacity="0.25"></line><line x1="0" y1="282.75" x2="1059.0125" y2="282.75" fill="rgb(0, 0, 0)" stroke="rgb(60, 60, 60)" stroke-width="1px" opacity="0.25"></line><line x1="0" y1="235.62499999999997" x2="1059.0125" y2="235.62499999999997" fill="rgb(0, 0, 0)" stroke="rgb(60, 60, 60)" stroke-width="1px" opacity="0.25"></line><line x1="0" y1="188.49999999999997" x2="1059.0125" y2="188.49999999999997" fill="rgb(0, 0, 0)" stroke="rgb(60, 60, 60)" stroke-width="1px" opacity="0.25"></line><line x1="0" y1="141.375" x2="1059.0125" y2="141.375" fill="rgb(0, 0, 0)" stroke="rgb(60, 60, 60)" stroke-width="1px" opacity="0.25"></line><line x1="0" y1="94.25" x2="1059.0125" y2="94.25" fill="rgb(0, 0, 0)" stroke="rgb(60, 60, 60)" stroke-width="1px" opacity="0.25"></line><line x1="0" y1="47.125" x2="1059.0125" y2="47.125" fill="rgb(0, 0, 0)" stroke="rgb(60, 60, 60)" stroke-width="1px" opacity="0.25"></line><line x1="0" y1="0" x2="1059.0125" y2="0" fill="rgb(0, 0, 0)" stroke="rgb(60, 60, 60)" stroke-width="1px" opacity="0.25"></line></g></g></g><g><g><line x1="0" y1="329.875" x2="1059.0125" y2="329.875" fill="rgb(0, 0, 0)" stroke="rgb(153, 153, 153)" stroke-width="1.5px"></line></g></g><g><g><line x1="117.66805555555555" y1="0" x2="117.66805555555555" y2="377" fill="rgb(0, 0, 0)" stroke="rgb(153, 153, 153)" stroke-width="1.5px"></line></g></g><g><g><g><g><g><path stroke="rgb(255, 112, 67)" stroke-width="2px" d="M152.9684722222222,-13.4803036686256L155.32183333333333,3.6233502447542154L157.67519444444443,32.52129265852365L160.02855555555556,28.72778259973926L162.38191666666665,44.69098263255012L164.73527777777778,57.60852725581173L167.08863888888888,70.58751609368831L169.442,106.1992480285003L171.7953611111111,129.78482077155752L174.14872222222223,136.39860101808492L176.50208333333333,171.09412623783888L178.85544444444446,173.44449857730197L181.20880555555556,180.07273128480622L183.56216666666668,184.42632090732852L185.91552777777778,213.97166440351984L188.2688888888889,207.94898071846484L190.62225,186.05793613888474L192.97561111111114,215.69609941925006L195.32897222222223,220.11579676050133L197.68233333333336,212.8623972067743L200.03569444444446,234.79817690553887L202.3890555555556,236.65202317254213L204.74241666666668,200.24498824439024L207.09577777777778,197.1472482383471L209.44913888888888,189.06331935637735L211.8025,217.02091298178175L214.1558611111111,198.3769666979914L216.50922222222223,190.52040064288056L218.86258333333333,192.71249211440437L221.21594444444446,216.57768347278915L223.56930555555556,152.55508562770953L225.9226666666667,156.87653450891136L228.27602777777778,179.50160787737363L230.62938888888888,185.23229286521047L232.98275,183.00715905395953L235.3361111111111,186.07954234761183L237.68947222222224,206.66111642356054L240.04283333333333,190.01310179370913L242.39619444444446,212.3550789087546L244.74955555555556,206.01941387232932L247.1029166666667,215.03322634027816L249.45627777777779,183.42054888561498L251.8096388888889,193.62757368061165L254.163,221.89523395254372L256.5163611111111,222.63119952889778L258.8697222222222,240.22806075371852L261.22308333333336,254.74137806762812L263.57644444444446,261.06900796812516L265.92980555555556,239.60286071909493L268.2831666666667,238.0091569901289L270.63652777777776,221.26059751396062L272.9898888888889,214.41885303070947L275.34325,167.14942382342102L277.69661111111117,188.81895687321708L280.0499722222222,225.01253100493483L282.40333333333336,227.3218225643571L284.75669444444446,249.1590274590573L287.1100555555556,246.61492546905998L289.46341666666666,214.78778555995183L291.8167777777778,238.52503589246248L294.1701388888889,240.8273366895531L296.5235,257.9464822974631L298.8768611111111,264.6933616610961L301.2302222222222,268.1097634315548L303.58358333333337,238.82340957999574L305.9369444444444,238.83989999312365L308.29030555555556,265.9527681380106L310.64366666666666,257.47938061860754L312.9970277777778,265.7212681374404L315.35038888888886,268.6867407561215L317.70375,263.179124648921L320.0571111111111,267.66383350300924L322.41047222222227,281.9900891961642L324.7638333333333,279.37871277224946L327.11719444444446,264.2061333247538L329.47055555555556,266.3752393849799L331.8239166666667,278.6425580458706L334.17727777777776,265.9964716331283L336.5306388888889,262.4362490234446L338.884,243.15093163297604L341.23736111111117,261.90347932291644L343.5907222222222,269.54883319221506L345.94408333333337,266.01418849279025L348.29744444444447,246.51413216262785L350.6508055555556,237.596423438607L353.00416666666666,244.37252784157894L355.35752777777776,233.18507461330353L357.7108888888889,234.5735350285832L360.06425,246.95724471568246L362.4176111111111,265.0673827001999L364.7709722222222,282.25493305814564L367.12433333333337,262.83463251377526L369.47769444444447,273.9762883635484L371.83105555555557,278.776622139789L374.18441666666666,287.5400846579685L376.5377777777778,296.3063684823521L378.89113888888886,259.61305568649817L381.2445,231.53447843810588L383.5978611111111,244.58280899656216L385.95122222222227,257.71952462513684L388.3045833333333,280.28054128554123L390.65794444444447,255.80762319991982L393.01130555555557,254.19890421020983L395.3646666666667,253.92820778124334L397.71802777777776,269.62724499930613L400.0713888888889,252.22283460962583L402.42475,229.55143219392184L404.7781111111112,256.6404271016161L407.1314722222222,262.6891345695937L409.48483333333337,277.715362809079L411.83819444444447,266.84533609269687L414.19155555555557,281.62920920927L416.54491666666667,236.71254703926252L418.89827777777776,240.08590164200785L421.2516388888889,245.9752185384412L423.605,252.72676122575876L425.9583611111111,255.8246039190285L428.3117222222222,231.08399251332236L430.66508333333337,250.0077434777042L433.01844444444447,242.88726006292228L435.37180555555557,264.23948313351224L437.72516666666667,274.9206578883872L440.0785277777778,259.76120459159284L442.4318888888889,255.6375816486482L444.78525,264.2564709617021L447.1386111111111,264.59114580353037L449.4919722222223,272.6815957300361L451.8453333333334,278.20909678474044L454.19869444444447,263.1218266876636L456.55205555555557,273.2279292735218L458.9054166666667,262.1722414012408L461.25877777777777,280.19780716244315L463.6121388888889,268.5216739427682L465.9655,270.6897850693247L468.3188611111112,243.82645488148816L470.6722222222222,258.6573367520624L473.0255833333333,239.5485906842025L475.37894444444447,255.71453737423852L477.73230555555557,245.3166485157968L480.08566666666667,235.34059155895486L482.43902777777777,243.67195028611525L484.7923888888889,258.1201599869043L487.14575,274.0840469394869L489.4991111111111,283.5624353428034L491.8524722222222,291.50062792610214L494.2058333333334,293.07681712201884L496.5591944444445,297.37623441780596L498.91255555555557,293.183117668718L501.26591666666667,297.4258664732516L503.6192777777778,301.77917386019766L505.9726388888889,311.21477331902554L508.326,298.80391447654944L510.6793611111111,300.78089024669873L513.0327222222222,302.70319527527363L515.3860833333334,289.4345933833162L517.7394444444444,285.040070758816L520.0928055555556,296.0012087268718L522.4461666666667,306.7256892039978L524.7995277777778,312.6058523505317L527.1528888888889,307.6551298707358L529.50625,309.4068923173626L531.8596111111111,300.22156784106966L534.2129722222222,298.9890725682358L536.5663333333334,294.11870114327553L538.9196944444444,295.69055614960837L541.2730555555555,292.6531536435643L543.6264166666666,304.0531994359156L545.9797777777778,301.698361260829L548.3331388888889,299.32955814116457L550.6865,273.4812752438381L553.0398611111111,280.60587885873286L555.3932222222223,287.68576428605184L557.7465833333333,293.0052586577866L560.0999444444444,280.4875323404392L562.4533055555555,275.0069784480047L564.8066666666667,288.8444966633744L567.1600277777778,277.5828903174178L569.5133888888889,278.2130466300712L571.86675,287.2417410242388L574.2201111111112,290.9801929319101L576.5734722222222,299.4712684869288L578.9268333333333,281.53948082891213L581.2801944444444,285.17700026626653L583.6335555555556,270.8400020730213L585.9869166666667,279.352086785836L588.3402777777778,289.6181890694218L590.6936388888889,295.4838173424701L593.047,269.9256480804384L595.4003611111111,283.9497477313161L597.7537222222222,296.549113536084L600.1070833333333,291.5038661333646L602.4604444444444,276.3365658743814L604.8138055555556,294.8339193991503L607.1671666666667,281.5590697679926L609.5205277777778,259.6605215134626L611.8738888888888,256.22854287847315L614.22725,274.7691717478599L616.5806111111111,276.79040527689256L618.9339722222222,293.32211800424926L621.2873333333333,289.8814321086328L623.6406944444445,272.56798879656316L625.9940555555556,285.1070117256231L628.3474166666667,267.1651527584307L630.7007777777777,276.7333072200842L633.0541388888889,265.11973550769255L635.4075,281.05246832990684L637.7608611111111,294.46602079025826L640.1142222222222,289.74355333895636L642.4675833333334,288.8845447799632L644.8209444444445,297.0075504623991L647.1743055555556,287.9730865042294L649.5276666666666,301.78889665554897L651.8810277777777,300.959597240692L654.2343888888889,302.9617732648883L656.58775,300.98189021035034L658.9411111111111,304.4994294979215L661.2944722222222,309.26289146154613L663.6478333333334,305.22155417954616L666.0011944444445,305.73642691049395L668.3545555555555,308.9349505391623L670.7079166666666,313.46928140275355L673.0612777777778,309.8341079890888L675.4146388888889,292.6680367389417L677.768,304.5295647508857L680.1213611111111,297.6050822318767L682.4747222222223,295.9506708431944L684.8280833333333,290.0349827147248L687.1814444444444,304.89188294499206L689.5348055555555,310.2675726250653L691.8881666666667,314.24282240857747L694.2415277777778,312.40294894570155L696.5948888888889,316.50996117960835L698.94825,318.7241967446144L701.3016111111112,314.1385129672459L703.6549722222222,316.9471055754078L706.0083333333333,317.5334270680653L708.3616944444444,309.01146209744854L710.7150555555555,303.01427309070965L713.0684166666667,303.9092974110242L715.4217777777778,302.5108889866648L717.7751388888889,310.98663617069064L720.1285,305.42788409229837L722.4818611111111,293.9067631068034L724.8352222222222,294.66996657041926L727.1885833333333,306.37288098764105L729.5419444444444,309.1364388300877L731.8953055555556,301.7177095202446L734.2486666666667,305.7760413408483L736.6020277777778,303.3502282236638L738.9553888888889,299.2543066954388L741.30875,278.8499017501338L743.6621111111111,297.5653795937502L746.0154722222222,304.6115411085518L748.3688333333333,291.5566771604199L750.7221944444445,305.34918995338035L753.0755555555556,313.38855584643693L755.4289166666667,313.557704787671L757.7822777777777,312.5714020948675L760.1356388888889,315.74459111518064L762.489,311.4215301182949L764.8423611111111,313.91575375576815L767.1957222222222,314.00699327963594L769.5490833333333,310.11039018304945L771.9024444444445,306.4939267101693L774.2558055555556,302.7272754825835L776.6091666666666,292.14686316580685L778.9625277777777,302.17494213554926L781.3158888888889,288.8528971804599L783.66925,293.11723274415255L786.0226111111111,296.5076518117667L788.3759722222222,299.15879125017113L790.7293333333334,291.1015755779635L793.0826944444445,303.3879930107052L795.4360555555555,294.7360666709098L797.7894166666666,300.257514059809L800.1427777777778,305.3472132613612L802.4961388888889,312.9125445905538L804.8495,296.80111911286184L807.2028611111111,307.6450380307541L809.5562222222223,294.22595676837005L811.9095833333334,298.4847522880592L814.2629444444444,302.1746244352137L816.6163055555555,311.6949971293554L818.9696666666667,309.68557979018357L821.3230277777778,312.85306437597194L823.6763888888889,301.17034270710064L826.02975,297.77301199791617L828.3831111111111,294.18437636380065L830.7364722222223,280.432521460859L833.0898333333333,294.89210498536113L835.4431944444444,289.95936005088373L837.7965555555555,302.92492036050675L840.1499166666667,297.3537245044178L842.5032777777778,299.8504242043386L844.8566388888889,309.16560934409887L847.21,299.85371769026153L849.5633611111111,302.3586944996878L851.9167222222222,282.439474773977L854.2700833333333,281.2230114646696L856.6234444444444,297.82440854917127L858.9768055555556,308.9372864665324L861.3301666666667,309.926352836295L863.6835277777778,316.15512834290655L866.0368888888889,317.58551176462316L868.39025,318.01843517988175L870.7436111111111,318.72812894471286L873.0969722222222,308.93819334797735L875.4503333333333,308.23130570727693L877.8036944444445,314.3974496179446L880.1570555555556,318.5805372083857L882.5104166666667,320.7658581427477L884.8637777777778,321.8722657284434L887.2171388888888,320.65079046204954L889.5705,322.1177252158129L891.9238611111111,320.8869998588922L894.2772222222222,304.9386758623875L896.6305833333333,314.08603532493566L898.9839444444445,317.93582966219157L901.3373055555556,314.8358493695603L903.6906666666667,319.8460792176393L906.0440277777777,322.9857965729553L908.3973888888889,321.20075916573666L910.75075,322.37512403715556L913.1041111111111,320.3794235152463L915.4574722222222,316.26992278098817L917.8108333333334,318.1337714090184L920.1641944444445,321.3914001847441L922.5175555555555,321.31346789949447L924.8709166666666,317.88301375480484L927.2242777777778,317.65069353526525L929.5776388888889,318.47482839939414L931.931,304.9122013924564L934.2843611111111,312.5480260863852L936.6377222222224,315.34502227358234L938.9910833333334,315.09518640117176L941.3444444444444,318.438013270319L943.6978055555555,310.57133473519707L946.0511666666666,313.4222752118586L948.4045277777778,309.1826050334858L950.7578888888889,308.75940694421155L953.11125,316.80089423569063L955.4646111111111,318.2148405422242L957.8179722222224,311.9749005934281L960.1713333333333,314.85371331222706L962.5246944444444,319.8858727117313L964.8780555555555,314.03770498483976" style="fill: none;" fill="none"></path></g></g></g></g><g opacity="0.2"><g><g><g><path stroke="rgb(255, 112, 67)" stroke-width="2px" d="M141.20166666666668,-98.40874385833749L143.5550277777778,57.30539697408676L145.9083888888889,-100.1421249359847L148.26175,-0.9227358996868134L150.6151111111111,40.36752435564995L152.9684722222222,7.411655589938164L155.32183333333333,29.271593421697617L157.67519444444443,75.86086909472942L160.02855555555556,23.03809541463852L162.38191666666665,68.63432358205318L164.73527777777778,76.98413576185703L167.08863888888888,90.05557227134705L169.442,159.61614283919334L171.7953611111111,165.16290049254894L174.14872222222223,146.31922437995672L176.50208333333333,223.13726610690355L178.85544444444446,176.9700510725379L181.20880555555556,190.0150701701641L183.56216666666668,190.9567013308406L185.91552777777778,258.2896633185446L188.2688888888889,198.91495718806982L190.62225,153.22137362509966L192.97561111111114,260.15334080159664L195.32897222222223,226.74534245580435L197.68233333333336,201.9822981879115L200.03569444444446,267.7018458880484L202.3890555555556,239.43279254436493L204.74241666666668,145.63443619012833L207.09577777777778,192.50063824653625L209.44913888888888,176.93742606043816L211.8025,258.95730336382985L214.1558611111111,170.4110472947359L216.50922222222223,178.73555156588554L218.86258333333333,196.0006293207407L221.21594444444446,252.3754705041647L223.56930555555556,56.521188870072365L225.9226666666667,163.35870783030987L228.27602777777778,213.439217928797L230.62938888888888,193.82832034677267L232.98275,179.66945833712816L235.3361111111111,190.68811728805304L237.68947222222224,237.53347753733397L240.04283333333333,165.04107984900475L242.39619444444446,245.86804458126426L244.74955555555556,196.51591631770134L247.1029166666667,228.55394504219294L249.45627777777779,136.00153270363808L251.8096388888889,208.93811087310314L254.163,264.2967243604362L256.5163611111111,223.7351478934288L258.8697222222222,266.62335259094834L261.22308333333336,276.51135403849185L263.57644444444446,270.56045281887054L265.92980555555556,207.40363984555006L268.2831666666667,235.61860139667988L270.63652777777776,196.13775829970837L272.9898888888889,204.15623630583286L275.34325,96.24528001248837L277.69661111111117,221.32325644791126L280.0499722222222,279.30289220251143L282.40333333333336,230.78575990349054L284.75669444444446,281.91483480110765L287.1100555555556,242.7987724840641L289.46341666666666,167.04707569628954L291.8167777777778,274.13091139122844L294.1701388888889,244.28078788518906L296.5235,283.62520070932806L298.8768611111111,274.8136807065457L301.2302222222222,273.23436608724296L303.58358333333337,194.89387880265713L305.9369444444444,238.86463561281562L308.29030555555556,306.62207035534084L310.64366666666666,244.76929933950305L312.9970277777778,278.0840994156897L315.35038888888886,273.13494968414307L317.70375,254.91770048812032L320.0571111111111,274.39089678414166L322.41047222222227,303.4794727358967L324.7638333333333,275.46164813637733L327.11719444444446,241.44726415351033L329.47055555555556,269.62889847531915L331.8239166666667,297.04353603720665L334.17727777777776,247.02734201401472L336.5306388888889,257.09591510891914L338.884,214.22295554727316L341.23736111111117,290.03230085782707L343.5907222222222,281.016863996163L345.94408333333337,260.7122214436531L348.29744444444447,217.26404766738415L350.6508055555556,224.21986035257578L353.00416666666666,254.53668444603682L355.35752777777776,216.40389477089047L357.7108888888889,236.6562256515026L360.06425,265.53280924633145L362.4176111111111,292.2325896769762L364.7709722222222,308.0362585950643L367.12433333333337,233.7041816972196L369.47769444444447,290.68877213820815L371.83105555555557,285.97712280415L374.18441666666666,300.6852784352377L376.5377777777778,309.4557942189276L378.89113888888886,204.57308649271727L381.2445,189.41661256551743L383.5978611111111,264.15530483424664L385.95122222222227,277.4245980679989L388.3045833333333,314.12206627614796L390.65794444444447,219.09824607148767L393.01130555555557,251.78582572564483L395.3646666666667,253.52216313779354L397.71802777777776,293.1758008264005L400.0713888888889,226.11621902510524L402.42475,195.5443285703659L404.7781111111112,297.27391946315765L407.1314722222222,271.7621957715601L409.48483333333337,300.2547051683068L411.83819444444447,250.54029601812363L414.19155555555557,303.8050188841298L416.54491666666667,169.3375537842512L418.89827777777776,245.1459335461259L421.2516388888889,254.8091938830912L423.605,262.8540752567351L425.9583611111111,260.4713679589331L428.3117222222222,193.97307540476322L430.66508333333337,278.39336992427707L433.01844444444447,232.2065349407494L435.37180555555557,296.2678177393973L437.72516666666667,290.9424200206995L440.0785277777778,237.0220246464014L442.4318888888889,249.45214723423123L444.78525,277.184804931283L447.1386111111111,265.09315806627274L449.4919722222223,284.8172706197947L451.8453333333334,286.50034836679697L454.19869444444447,240.49092154204845L456.55205555555557,288.38708315230906L458.9054166666667,245.5887095928192L461.25877777777777,307.23615580424666L463.6121388888889,251.00747411325574L465.9655,273.94195175915956L468.3188611111112,203.53145959973335L470.6722222222222,280.9036595579237L473.0255833333333,210.88547158241272L475.37894444444447,279.96345740929246L477.73230555555557,229.7198152281344L480.08566666666667,220.3765061236918L482.43902777777777,256.16898837685585L484.7923888888889,279.79247453808784L487.14575,298.02987736836076L489.4991111111111,297.7800179477781L491.8524722222222,303.4079168010503L494.2058333333334,295.4411009158939L496.5591944444445,303.8253603614867L498.91255555555557,286.89344254508615L501.26591666666667,303.7899896800518L503.6192777777778,308.3091349406168L505.9726388888889,325.36817250726745L508.326,280.1876262128353L510.6793611111111,303.7463539019227L513.0327222222222,305.5866528181359L515.3860833333334,269.5316905453801L517.7394444444444,278.4482868220657L520.0928055555556,312.4429156789556L522.4461666666667,322.8124099196866L524.7995277777778,321.4260970703326L527.1528888888889,300.229046151042L529.50625,312.03453598730266L531.8596111111111,286.4435811266303L534.2129722222222,297.14032965898514L536.5663333333334,286.81314400583506L538.9196944444444,298.0483386591077L541.2730555555555,288.0970498844981L543.6264166666666,321.15326812444255L545.9797777777778,298.1661039981991L548.3331388888889,295.7763534616679L550.6865,234.7088508978486L553.0398611111111,291.292784281075L555.3932222222223,298.3055924270302L557.7465833333333,300.98450021538883L560.0999444444444,261.71094286441803L562.4533055555555,266.78614760935307L564.8066666666667,309.600773986429L567.1600277777778,260.6904807984829L569.5133888888889,279.15828109905124L571.86675,300.78478261549026L574.2201111111112,296.5878707934171L576.5734722222222,312.2078818194568L578.9268333333333,254.64179934188724L581.2801944444444,290.6332794222981L583.6335555555556,249.33450478315353L585.9869166666667,292.12021385505795L588.3402777777778,305.0173424948007L590.6936388888889,304.2822597520426L593.047,231.5883941873908L595.4003611111111,304.98589720763266L597.7537222222222,315.44816224323586L600.1070833333333,283.93599502928555L602.4604444444444,253.5856154859066L604.8138055555556,322.57994968630373L607.1671666666667,261.6467953212559L609.5205277777778,226.8126991316676L611.8738888888888,251.0805749259889L614.22725,302.5801150519401L616.5806111111111,279.8222555704415L618.9339722222222,318.11968709528446L621.2873333333333,284.720403265208L623.6406944444445,246.5978238284588L625.9940555555556,303.9155461192131L628.3474166666667,240.25236430764198L630.7007777777777,291.0855389125645L633.0541388888889,247.69937793910503L635.4075,304.9515675632283L637.7608611111111,314.58634948078543L640.1142222222222,282.6598521620035L642.4675833333334,287.5960319414735L644.8209444444445,309.19205898605287L647.1743055555556,274.4213905669749L649.5276666666666,322.5126118825283L651.8810277777777,299.71564811840653L654.2343888888889,305.96503730118275L656.58775,298.0120656285435L658.9411111111111,309.77573842927814L661.2944722222222,316.4080844069831L663.6478333333334,299.15954825654626L666.0011944444445,306.50873600691557L668.3545555555555,313.73273598216474L670.7079166666666,320.2707776981406L673.0612777777778,304.38134786859155L675.4146388888889,266.91892986372113L677.768,322.3218567688018L680.1213611111111,287.2183584533632L682.4747222222223,293.46905376017094L684.8280833333333,281.16145052202046L687.1814444444444,327.1772332903929L689.5348055555555,318.33110714517534L691.8881666666667,320.20569708384573L694.2415277777778,309.6431387513876L696.5948888888889,322.6704795304686L698.94825,322.04555009212345L701.3016111111112,307.2599873011932L703.6549722222222,321.1599944876507L706.0083333333333,318.41290930705145L708.3616944444444,296.22851464152336L710.7150555555555,294.01848958060145L713.0684166666667,305.25183389149606L715.4217777777778,300.41327635012567L717.7751388888889,323.7002569467295L720.1285,297.08975597471L722.4818611111111,276.625081628561L724.8352222222222,295.81477176584303L727.1885833333333,323.9272526134737L729.5419444444444,313.28177559375763L731.8953055555556,290.5896155554801L734.2486666666667,311.8635390717536L736.6020277777778,299.7115085478872L738.9553888888889,293.1104244031012L741.30875,248.24329433217645L743.6621111111111,325.6385963591747L746.0154722222222,315.1807833807543L748.3688333333333,271.9743812382221L750.7221944444445,326.0379591428209L753.0755555555556,325.4476046860218L755.4289166666667,313.8114281995222L757.7822777777777,311.0919480556622L760.1356388888889,320.5043746456504L762.489,304.9369386229664L764.8423611111111,317.657089211978L767.1957222222222,314.14385256543756L769.5490833333333,304.26548553816974L771.9024444444445,301.0692315008491L774.2558055555556,297.07729864120483L776.6091666666666,276.27624469064176L778.9625277777777,317.2170605901629L781.3158888888889,268.86982974782586L783.66925,299.5137360896915L786.0226111111111,301.59328041318804L788.3759722222222,303.1355004077777L790.7293333333334,279.0157520696521L793.0826944444445,321.8176191598177L795.4360555555555,281.75817716121674L797.7894166666666,308.53968514315784L800.1427777777778,312.98176206368953L802.4961388888889,324.2605415843427L804.8495,272.6339808963239L807.2028611111111,323.9109164075926L809.5562222222223,274.0973348747939L811.9095833333334,304.872945567593L814.2629444444444,307.7094326559454L816.6163055555555,325.97555617056787L818.9696666666667,306.67145378142595L821.3230277777778,317.6042912546545L823.6763888888889,283.64626020379364L826.02975,292.6770159341395L828.3831111111111,288.80142291262746L830.7364722222223,259.8047391064465L833.0898333333333,316.5814802721143L835.4431944444444,282.5602426491678L837.7965555555555,322.3732608249411L840.1499166666667,288.9969307202846L842.5032777777778,303.5954737542197L844.8566388888889,323.1383870537393L847.21,285.88588020950556L849.5633611111111,306.1161597138271L851.9167222222222,252.56064518541098L854.2700833333333,279.39831650070846L856.6234444444444,322.72650417592376L858.9768055555556,325.6066033425741L861.3301666666667,311.409952390939L863.6835277777778,325.4982916028239L866.0368888888889,319.7310868971981L868.39025,318.66782030276954L870.7436111111111,319.79266959195957L873.0969722222222,294.2532899528742L875.4503333333333,307.17097424622625L877.8036944444445,323.646665483946L880.1570555555556,324.8551685940474L882.5104166666667,324.0438395442907L884.8637777777778,323.53187710698694L887.2171388888888,318.8185775624588L889.5705,324.3181273464579L891.9238611111111,319.0409118235111L894.2772222222222,281.0161898676306L896.6305833333333,327.8070745187579L898.9839444444445,323.7105211680755L901.3373055555556,310.1858789306134L903.6906666666667,327.3614239897579L906.0440277777777,327.69537260592915L908.3973888888889,318.52320305490866L910.75075,324.13667134428397L913.1041111111111,317.38587273238227L915.4574722222222,310.1056716796011L917.8108333333334,320.92954435106367L920.1641944444445,326.2778433483327L922.5175555555555,321.19656947162L924.8709166666666,312.73733253777027L927.2242777777778,317.3022132059559L929.5776388888889,319.7110306955874L931.931,284.5682608820498L934.2843611111111,324.00176312727854L936.6377222222224,319.540516554378L938.9910833333334,314.7204325925559L941.3444444444444,323.4522535740398L943.6978055555555,298.7713169325143L946.0511666666666,317.6986859268509L948.4045277777778,302.8230997659266L950.7578888888889,308.12460981030017L953.11125,328.86312517290935L955.4646111111111,320.3357600020245L957.8179722222224,302.61499067023396L960.1713333333333,319.17193239042535L962.5246944444444,327.4341118109878L964.8780555555555,305.2654533945024" style="fill: none;" fill="none"></path></g></g></g></g></g></g><g transform="translate(53, 377)" clip-path="url(#clip_1)"><clipPath id="clip_1"><rect width="1059" height="23"></rect></clipPath><g><g><line x1="0" y1="0" x2="0" y2="5" style="visibility: inherit;" fill="rgb(0, 0, 0)" stroke="rgb(204, 204, 204)" stroke-width="1px"></line><line x1="117.66805555555555" y1="0" x2="117.66805555555555" y2="5" style="visibility: inherit;" fill="rgb(0, 0, 0)" stroke="rgb(204, 204, 204)" stroke-width="1px"></line><line x1="235.3361111111111" y1="0" x2="235.3361111111111" y2="5" style="visibility: inherit;" fill="rgb(0, 0, 0)" stroke="rgb(204, 204, 204)" stroke-width="1px"></line><line x1="353.00416666666666" y1="0" x2="353.00416666666666" y2="5" style="visibility: inherit;" fill="rgb(0, 0, 0)" stroke="rgb(204, 204, 204)" stroke-width="1px"></line><line x1="470.6722222222222" y1="0" x2="470.6722222222222" y2="5" style="visibility: inherit;" fill="rgb(0, 0, 0)" stroke="rgb(204, 204, 204)" stroke-width="1px"></line><line x1="588.3402777777778" y1="0" x2="588.3402777777778" y2="5" style="visibility: inherit;" fill="rgb(0, 0, 0)" stroke="rgb(204, 204, 204)" stroke-width="1px"></line><line x1="706.0083333333333" y1="0" x2="706.0083333333333" y2="5" style="visibility: inherit;" fill="rgb(0, 0, 0)" stroke="rgb(204, 204, 204)" stroke-width="1px"></line><line x1="823.6763888888889" y1="0" x2="823.6763888888889" y2="5" style="visibility: inherit;" fill="rgb(0, 0, 0)" stroke="rgb(204, 204, 204)" stroke-width="1px"></line><line x1="941.3444444444444" y1="0" x2="941.3444444444444" y2="5" style="visibility: inherit;" fill="rgb(0, 0, 0)" stroke="rgb(204, 204, 204)" stroke-width="1px"></line><line x1="1059.0125" y1="0" x2="1059.0125" y2="5" style="visibility: inherit;" fill="rgb(0, 0, 0)" stroke="rgb(204, 204, 204)" stroke-width="1px"></line></g><g transform="translate(0, 8)"><text x="0" y="0" dx="0em" dy="0.95em" style="text-anchor: middle; visibility: hidden; font-family: Roboto, sans-serif; font-size: 12px; font-weight: 200;" fill="rgb(50, 49, 63)" stroke="none" stroke-width="1px">-500</text><text x="117.66805555555555" y="0" dx="0em" dy="0.95em" style="text-anchor: middle; visibility: inherit; font-family: Roboto, sans-serif; font-size: 12px; font-weight: 200;" fill="rgb(50, 49, 63)" stroke="none" stroke-width="1px">0</text><text x="235.3361111111111" y="0" dx="0em" dy="0.95em" style="text-anchor: middle; visibility: inherit; font-family: Roboto, sans-serif; font-size: 12px; font-weight: 200;" fill="rgb(50, 49, 63)" stroke="none" stroke-width="1px">500</text><text x="353.00416666666666" y="0" dx="0em" dy="0.95em" style="text-anchor: middle; visibility: inherit; font-family: Roboto, sans-serif; font-size: 12px; font-weight: 200;" fill="rgb(50, 49, 63)" stroke="none" stroke-width="1px">1k</text><text x="470.6722222222222" y="0" dx="0em" dy="0.95em" style="text-anchor: middle; visibility: inherit; font-family: Roboto, sans-serif; font-size: 12px; font-weight: 200;" fill="rgb(50, 49, 63)" stroke="none" stroke-width="1px">1.5k</text><text x="588.3402777777778" y="0" dx="0em" dy="0.95em" style="text-anchor: middle; visibility: inherit; font-family: Roboto, sans-serif; font-size: 12px; font-weight: 200;" fill="rgb(50, 49, 63)" stroke="none" stroke-width="1px">2k</text><text x="706.0083333333333" y="0" dx="0em" dy="0.95em" style="text-anchor: middle; visibility: inherit; font-family: Roboto, sans-serif; font-size: 12px; font-weight: 200;" fill="rgb(50, 49, 63)" stroke="none" stroke-width="1px">2.5k</text><text x="823.6763888888889" y="0" dx="0em" dy="0.95em" style="text-anchor: middle; visibility: inherit; font-family: Roboto, sans-serif; font-size: 12px; font-weight: 200;" fill="rgb(50, 49, 63)" stroke="none" stroke-width="1px">3k</text><text x="941.3444444444444" y="0" dx="0em" dy="0.95em" style="text-anchor: middle; visibility: inherit; font-family: Roboto, sans-serif; font-size: 12px; font-weight: 200;" fill="rgb(50, 49, 63)" stroke="none" stroke-width="1px">3.5k</text><text x="1059.0125" y="0" dx="0em" dy="0.95em" style="text-anchor: middle; visibility: hidden; font-family: Roboto, sans-serif; font-size: 12px; font-weight: 200;" fill="rgb(50, 49, 63)" stroke="none" stroke-width="1px">4k</text></g><line x1="0" y1="0" x2="1059.0125" y2="0" fill="rgb(0, 0, 0)" stroke="rgb(204, 204, 204)" stroke-width="1px"></line></g></g></g></g></svg>